<svg width="53" height="53" viewBox="0 0 53 53" fill="none" xmlns="http://www.w3.org/2000/svg">
<g clip-path="url(#clip0_0_43)">
<path d="M0 0H53V53H0V0Z" fill="#F7DF1E"/>
<path d="M13.9357 44.2907L17.9916 41.8361C18.7741 43.2234 19.4859 44.3972 21.1932 44.3972C22.8298 44.3972 23.8617 43.757 23.8617 41.2669V24.3321H28.8423V41.3373C28.8423 46.496 25.8185 48.844 21.4068 48.844C17.4224 48.844 15.1096 46.7805 13.9356 44.2902" fill="black"/>
<path d="M31.5477 43.757L35.6031 41.4089C36.6707 43.1523 38.0582 44.433 40.5129 44.433C42.5766 44.433 43.8926 43.4012 43.8926 41.9781C43.8926 40.2704 42.5407 39.6655 40.2638 38.6697L39.0189 38.1357C35.4254 36.6062 33.0417 34.685 33.0417 30.6292C33.0417 26.8936 35.8878 24.0473 40.3351 24.0473C43.5015 24.0473 45.7784 25.1503 47.4147 28.0321L43.5368 30.5223C42.6829 28.9927 41.7582 28.388 40.3352 28.388C38.8765 28.388 37.9514 29.3129 37.9514 30.5223C37.9514 32.0166 38.8765 32.6216 41.0109 33.5466L42.256 34.0802C46.4897 35.8948 48.8734 37.7446 48.8734 41.9069C48.8734 46.3899 45.3513 48.8444 40.6197 48.8444C35.9947 48.8444 33.0062 46.6388 31.5478 43.757" fill="black"/>
</g>
<defs>
<clipPath id="clip0_0_43">
<rect width="53" height="53" rx="26.5" fill="white"/>
</clipPath>
</defs>
</svg>
